@startuml
' hide the spot
' hide circle

' avoid problems with angled crows feet
skinparam linetype ortho

entity "User" as u {
  *u_id : number <<generated>>
  --
  *name : text
}

entity "House" as house {
  *house_id : number <<generated>>
  --
  *u_id : number <<FK>>
  *address : text
}

entity "Heating" as h {
  *h_id : number <<generated>>
  --
  *house_id : number <<FK>>
  is_on : boolean
  target_temperature : double
  current_temperature : double
  last_updated : date
}

entity "HeatingCondition" as hc {
  *hc_id : number <<generated>>
  --
  *house_id : number <<FK>>
  current_temperature : double
  created_date : date
}

entity "HeatingScenario" as hs {
  *hs_id : number <<generated>>
  --
  *house_id : number <<FK>>
  *h_id : number <<FK>>
  target_temperature : double
  min_activate_temperature : double
  cron : text
  active : boolean
  start_date: date
  end_date: date
}

entity "Gates" as g {
  *g_id : number <<generated>>
  --
  *house_id : number <<FK>>
  target_is_open: boolean
  current_is_open: boolean
  last_updated : date
}

entity "GatesCondition" as gc {
  *gc_id : number <<generated>>
  --
  *house_id : number <<FK>>
  current_is_open: boolean
  created_date : date
}

entity "GatesScenario" as gs {
  *gs_id : number <<generated>>
  --
  *house_id : number <<FK>>
  *g_id : number <<FK>>
  cron_open : text
  cron_close : text
  active : boolean
  start_date: date
  end_date: date
}

entity "Light" as l {
  *l_id : number <<generated>>
  --
  *house_id : number <<FK>>
  target_is_on: boolean
  current_is_on: boolean
  last_updated : date
}

entity "LightCondition" as lc {
  *g_id : number <<generated>>
  --
  *house_id : number <<FK>>
  current_is_on: boolean
  created_date : date
}

entity "LightScenario" as ls {
  *ls_id : number <<generated>>
  --
  *house_id : number <<FK>>
  *l_id : number <<FK>>
  cron_on : text
  cron_off : text
  active : boolean
  start_date: date
  end_date: date
}

entity "Camera" as c {
  *c_id : number <<generated>>
  --
  *house_id : number <<FK>>
  camera_stream_id: number <<FK>>
}

entity "CameraScenario" as cs {
  *cs_id : number <<generated>>
  --
  *house_id : number <<FK>>
  *c_id : number <<FK>>
  active : boolean
  start_date: date
  end_date: date
  record_life_time: number
}

entity "VideoBLOB" as cb {
  *ls_id : number <<generated>>
  --
  *house_id : number <<FK>>
  *c_id : number <<FK>>
  created_date: date
}

u |o..o{ house

house |o..o| h
house |o..o| hc
house |o..o{ hs
h |o..o{ hs


house |o..o| g
house |o..o{ gs
house |o..o{ gc
g |o..o{ gs

house |o..o| l
house |o..o{ ls
house |o..o{ lc
l |o..o{ ls

house |o..o| c
house |o..o{ cs
house |o..o{ cb
c |o..o{ cs
c |o..o{ cb
@enduml